<svg width="60" height="60" viewBox="0 0 60 60" fill="none" xmlns="http://www.w3.org/2000/svg">
<g clip-path="url(#clip0)">
<path d="M43.5938 0H16.4062C7.34533 0 0 7.34533 0 16.4062V43.5938C0 52.6547 7.34533 60 16.4062 60H43.5938C52.6547 60 60 52.6547 60 43.5938V16.4062C60 7.34533 52.6547 0 43.5938 0Z" fill="url(#paint0_linear)"/>
<g filter="url(#filter0_d)">
<path d="M34.922 10.0958L45.4589 28.3424L39.722 27.8368C39.6692 27.8327 39.6165 27.8292 39.5644 27.8274C38.828 27.7899 38.0952 27.9518 37.4432 28.2961C36.7913 28.6403 36.2443 29.1541 35.8599 29.7833C35.4756 30.4125 35.2682 31.1337 35.2595 31.871C35.2509 32.6082 35.4414 33.3341 35.8108 33.9721C35.8437 34.0307 35.8776 34.0858 35.914 34.1415C35.9427 34.1877 35.9726 34.2329 36.003 34.2774L43.0741 44.3614L30.487 51.627C29.4096 52.2456 28.1311 52.4126 26.931 52.0915C25.7308 51.7704 24.7066 50.9872 24.0821 49.9131L9.55089 24.7442C8.93272 23.6664 8.76636 22.3878 9.08817 21.1877C9.40998 19.9876 10.1938 18.9638 11.2683 18.3399L28.5212 8.37896C29.5986 7.76201 30.8763 7.59627 32.0755 7.9179C33.2747 8.23954 34.2979 9.02244 34.922 10.0958Z" fill="white"/>
</g>
<path d="M30.5134 15.3483L16.3051 23.5515C15.1841 24.1987 14.8001 25.6321 15.4473 26.7531C16.0945 27.8741 17.5279 28.2582 18.6489 27.6109L32.8571 19.4078C33.9781 18.7606 34.3622 17.3272 33.715 16.2062C33.0678 15.0852 31.6344 14.7011 30.5134 15.3483Z" fill="#439CEF"/>
<path d="M26.5477 27.111L20.4585 30.6266C19.3375 31.2738 18.9534 32.7072 19.6006 33.8282C20.2478 34.9492 21.6812 35.3333 22.8022 34.6861L28.8915 31.1705C30.0125 30.5233 30.3965 29.0899 29.7493 27.9689C29.1021 26.8479 27.6687 26.4638 26.5477 27.111Z" fill="#439CEF"/>
<path d="M55.2874 33.8199C55.2479 33.8891 55.2009 33.9538 55.1473 34.0127C55.1461 34.0147 55.1445 34.0165 55.1426 34.018C55.1368 34.025 55.1303 34.0314 55.1239 34.0385C55.0975 34.0643 55.0606 34.0971 55.0219 34.1275L55.0172 34.1311L54.876 34.2377L54.7752 34.3139L54.7682 34.3191L49.9635 37.9555L49.8979 38.0047L49.8879 38.0867L49.1409 44.0633V44.0721L49.125 44.1975L49.1034 44.3732C49.1036 44.3752 49.1036 44.3772 49.1034 44.3791C49.0952 44.4283 49.0864 44.4758 49.077 44.5109L49.0694 44.5379C49.0696 44.5402 49.0696 44.5426 49.0694 44.5449C49.045 44.6205 49.0127 44.6934 48.9733 44.7623C48.8755 44.932 48.7366 45.0745 48.5695 45.1765C48.4023 45.2786 48.2121 45.337 48.0164 45.3464C47.8208 45.3558 47.6259 45.3159 47.4497 45.2303C47.2735 45.1447 47.1216 45.0162 47.0081 44.8566V44.8566L38.4018 32.5947C38.2731 32.4127 38.1992 32.1976 38.1888 31.9749C38.1784 31.7522 38.232 31.5311 38.3432 31.3379C38.4448 31.1608 38.5916 31.0138 38.7686 30.9119C38.978 30.7913 39.2193 30.7379 39.46 30.759V30.759L54.3815 32.0744C54.5766 32.0928 54.7639 32.16 54.9262 32.2697C55.0885 32.3795 55.2206 32.5283 55.3104 32.7025C55.4001 32.8767 55.4446 33.0706 55.4398 33.2665C55.4349 33.4624 55.3809 33.6539 55.2827 33.8234L55.2874 33.8199Z" fill="white"/>
</g>
<defs>
<filter id="filter0_d" x="-11.0723" y="-12.2426" width="76.5312" height="84.4939" filterUnits="userSpaceOnUse" color-interpolation-filters="sRGB">
<feFlood flood-opacity="0" result="BackgroundImageFix"/>
<feColorMatrix in="SourceAlpha" type="matrix" values="0 0 0 0 0 0 0 0 0 0 0 0 0 0 0 0 0 0 127 0" result="hardAlpha"/>
<feOffset/>
<feGaussianBlur stdDeviation="10"/>
<feComposite in2="hardAlpha" operator="out"/>
<feColorMatrix type="matrix" values="0 0 0 0 0 0 0 0 0 0 0 0 0 0 0 0 0 0 0.24 0"/>
<feBlend mode="normal" in2="BackgroundImageFix" result="effect1_dropShadow"/>
<feBlend mode="normal" in="SourceGraphic" in2="effect1_dropShadow" result="shape"/>
</filter>
<linearGradient id="paint0_linear" x1="30" y1="60" x2="30" y2="0" gradientUnits="userSpaceOnUse">
<stop stop-color="#205CD8"/>
<stop offset="1" stop-color="#439CEF"/>
</linearGradient>
<clipPath id="clip0">
<rect width="60" height="60" fill="white"/>
</clipPath>
</defs>
</svg>
